<svg width="721" height="345" viewBox="0 0 721 345" fill="none" xmlns="http://www.w3.org/2000/svg">
<g clip-path="url(#clip0_12_376)">
<path d="M152.904 325.802C135.641 314.133 123.089 293.158 125.658 271.952C141.202 288.693 161.954 299.19 184.242 301.588C192.841 302.481 202.495 302.544 208.602 308.887C212.401 312.833 214.016 318.601 214.099 324.178C214.182 329.755 212.89 335.244 211.606 340.66L211.922 342.013C191.33 341.224 170.167 337.471 152.904 325.802Z" fill="#F0F0F0"/>
<path d="M126.09 271.948C132.548 288.321 143.815 302.168 158.292 311.521C161.374 313.592 164.751 315.146 168.3 316.126C171.786 316.964 175.426 316.82 178.84 315.706C182.044 314.734 185.212 313.355 188.588 313.208C190.317 313.159 192.036 313.49 193.633 314.179C195.23 314.867 196.669 315.899 197.855 317.204C200.891 320.379 202.647 324.495 204.229 328.583C205.986 333.121 207.741 337.864 211.319 341.226C211.752 341.633 211.117 342.307 210.685 341.9C204.46 336.052 203.775 326.669 198.883 319.884C196.6 316.718 193.383 314.246 189.45 314.142C186.012 314.05 182.743 315.469 179.508 316.483C176.192 317.62 172.659 317.897 169.216 317.291C165.631 316.502 162.201 315.085 159.074 313.103C151.965 308.755 145.56 303.275 140.093 296.863C133.813 289.582 128.781 281.24 125.214 272.198C124.994 271.639 125.871 271.392 126.09 271.948H126.09Z" fill="white"/>
<path d="M153.459 308.794C151.617 311.1 149.044 312.652 146.2 313.172C143.356 313.692 140.426 313.147 137.934 311.633C137.431 311.325 137.869 310.5 138.373 310.808C140.691 312.222 143.42 312.73 146.067 312.24C148.714 311.75 151.106 310.294 152.809 308.136C153.18 307.668 153.828 308.328 153.459 308.794V308.794Z" fill="white"/>
<path d="M177.278 316.421C176.781 310.32 174.084 304.637 169.726 300.507C169.294 300.098 169.929 299.424 170.36 299.832C174.887 304.139 177.682 310.059 178.187 316.409C178.234 317.014 177.326 317.023 177.278 316.421Z" fill="white"/>
<path d="M134.956 289.188C135.848 288.449 136.55 287.493 136.997 286.404C137.445 285.315 137.625 284.128 137.521 282.949C137.466 282.344 138.375 282.336 138.429 282.937C138.538 284.24 138.338 285.551 137.846 286.755C137.354 287.959 136.585 289.02 135.606 289.845C135.52 289.931 135.406 289.98 135.287 289.981C135.167 289.983 135.052 289.937 134.964 289.854C134.878 289.766 134.829 289.647 134.828 289.522C134.826 289.398 134.872 289.277 134.956 289.188Z" fill="white"/>
<path d="M184.544 233.147C184.588 233.523 184.633 233.899 184.685 234.28C185.311 239.336 186.333 244.332 187.74 249.217C187.843 249.597 187.953 249.979 188.066 250.355C191.576 262.087 197.155 273.041 204.52 282.66C207.455 286.485 210.665 290.073 214.124 293.393C218.901 297.977 224.433 302.553 227.384 308.337C227.699 308.936 227.977 309.556 228.217 310.191L213.489 341.509C213.421 341.563 213.36 341.62 213.292 341.674L212.759 342.953C212.569 342.794 212.375 342.626 212.185 342.468C212.075 342.376 211.968 342.278 211.857 342.187C211.784 342.124 211.712 342.06 211.643 342.008C211.619 341.987 211.594 341.965 211.577 341.948C211.508 341.895 211.449 341.839 211.387 341.79C210.302 340.851 209.221 339.904 208.145 338.946C208.138 338.943 208.138 338.943 208.134 338.932C199.951 331.616 192.285 323.528 186.047 314.489C185.859 314.217 185.664 313.942 185.483 313.655C182.693 309.565 180.23 305.245 178.118 300.738C176.969 298.267 175.942 295.737 175.04 293.157C172.722 286.488 171.429 279.482 171.21 272.397C170.775 258.271 174.7 244.159 183.838 233.922C184.072 233.66 184.303 233.405 184.544 233.147Z" fill="#F0F0F0"/>
<path d="M184.894 233.411C180.546 250.517 181.505 268.609 187.635 285.117C188.893 288.695 190.688 292.045 192.953 295.044C195.249 297.891 198.239 300.048 201.612 301.291C204.734 302.516 208.064 303.393 210.845 305.383C212.254 306.424 213.435 307.762 214.31 309.309C215.185 310.857 215.735 312.578 215.924 314.362C216.506 318.792 215.518 323.176 214.409 327.427C213.177 332.148 211.826 337.031 212.731 341.949C212.841 342.545 211.943 342.687 211.833 342.092C210.258 333.535 215.158 325.615 215.19 317.143C215.204 313.189 214.071 309.207 210.991 306.668C208.299 304.447 204.865 303.539 201.694 302.328C198.387 301.165 195.404 299.18 193.007 296.547C190.603 293.678 188.687 290.405 187.341 286.869C184.189 278.958 182.255 270.583 181.611 262.049C180.825 252.314 181.649 242.511 184.049 233.064C184.198 232.48 185.042 232.83 184.894 233.411Z" fill="white"/>
<path d="M185.359 279.922C182.549 280.613 179.594 280.245 177.021 278.884C174.449 277.524 172.426 275.259 171.315 272.494C171.092 271.934 171.921 271.548 172.144 272.109C173.174 274.686 175.058 276.795 177.457 278.057C179.855 279.319 182.609 279.65 185.222 278.991C185.79 278.848 185.924 279.78 185.359 279.922V279.922Z" fill="white"/>
<path d="M199.95 300.886C203.094 295.704 204.239 289.483 203.157 283.464C203.05 282.868 203.948 282.726 204.055 283.321C205.17 289.587 203.965 296.059 200.682 301.444C200.369 301.957 199.639 301.397 199.95 300.886Z" fill="white"/>
<path d="M181.966 252.713C183.107 252.68 184.222 252.355 185.212 251.765C186.201 251.175 187.034 250.339 187.635 249.333C187.942 248.816 188.672 249.377 188.367 249.891C187.698 250.999 186.777 251.921 185.685 252.575C184.593 253.229 183.363 253.596 182.103 253.644C181.985 253.659 181.865 253.626 181.769 253.553C181.673 253.48 181.607 253.371 181.586 253.25C181.568 253.126 181.598 253.001 181.669 252.9C181.74 252.799 181.847 252.732 181.966 252.713H181.966Z" fill="white"/>
<path d="M679.735 325.802C696.999 314.133 709.551 293.158 706.982 271.952C691.437 288.693 670.685 299.19 648.397 301.588C639.798 302.481 630.144 302.544 624.038 308.887C620.238 312.833 618.623 318.601 618.54 324.178C618.457 329.755 619.749 335.244 621.033 340.66L620.717 342.013C641.309 341.224 662.472 337.471 679.735 325.802Z" fill="#F0F0F0"/>
<path d="M706.549 271.948C700.092 288.321 688.824 302.168 674.347 311.521C671.265 313.592 667.888 315.146 664.339 316.126C660.853 316.964 657.213 316.82 653.799 315.706C650.595 314.734 647.427 313.355 644.051 313.208C642.322 313.159 640.603 313.49 639.006 314.179C637.409 314.867 635.97 315.899 634.784 317.204C631.748 320.379 629.992 324.495 628.41 328.583C626.653 333.121 624.898 337.864 621.32 341.226C620.887 341.633 621.522 342.307 621.954 341.9C628.179 336.052 628.864 326.669 633.757 319.884C636.04 316.718 639.256 314.246 643.189 314.142C646.628 314.05 649.896 315.469 653.132 316.483C656.447 317.62 659.98 317.897 663.423 317.291C667.008 316.502 670.438 315.085 673.565 313.103C680.674 308.755 687.079 303.275 692.547 296.863C698.826 289.582 703.858 281.24 707.425 272.198C707.645 271.639 706.768 271.392 706.549 271.948H706.549Z" fill="white"/>
<path d="M679.18 308.794C681.022 311.1 683.595 312.652 686.439 313.172C689.283 313.692 692.213 313.147 694.705 311.633C695.208 311.325 694.77 310.5 694.266 310.808C691.948 312.222 689.219 312.73 686.572 312.24C683.925 311.75 681.534 310.294 679.83 308.136C679.459 307.668 678.811 308.328 679.18 308.794V308.794Z" fill="white"/>
<path d="M655.361 316.421C655.859 310.32 658.555 304.637 662.913 300.507C663.345 300.098 662.711 299.424 662.279 299.832C657.752 304.139 654.957 310.059 654.453 316.409C654.405 317.014 655.313 317.023 655.361 316.421Z" fill="white"/>
<path d="M697.683 289.188C696.791 288.449 696.089 287.493 695.642 286.404C695.194 285.315 695.014 284.128 695.118 282.949C695.173 282.344 694.265 282.336 694.21 282.937C694.101 284.24 694.301 285.551 694.793 286.755C695.285 287.959 696.054 289.02 697.033 289.845C697.119 289.931 697.233 289.98 697.352 289.981C697.472 289.983 697.587 289.937 697.675 289.854C697.761 289.766 697.81 289.647 697.811 289.522C697.813 289.398 697.767 289.277 697.683 289.188Z" fill="white"/>
<path d="M648.096 233.147C648.051 233.523 648.006 233.899 647.955 234.28C647.328 239.336 646.306 244.332 644.9 249.217C644.797 249.597 644.687 249.979 644.573 250.355C641.063 262.087 635.484 273.041 628.119 282.66C625.185 286.485 621.974 290.073 618.515 293.393C613.738 297.977 608.206 302.553 605.255 308.337C604.941 308.936 604.662 309.556 604.422 310.191L619.15 341.509C619.218 341.563 619.279 341.62 619.347 341.674L619.88 342.953C620.07 342.794 620.264 342.626 620.454 342.468C620.564 342.376 620.672 342.278 620.782 342.187C620.855 342.124 620.927 342.06 620.996 342.008C621.021 341.987 621.045 341.965 621.062 341.948C621.131 341.895 621.19 341.839 621.252 341.79C622.337 340.851 623.418 339.904 624.494 338.946C624.501 338.943 624.501 338.943 624.505 338.932C632.688 331.616 640.354 323.528 646.593 314.489C646.78 314.217 646.975 313.942 647.156 313.655C649.946 309.565 652.409 305.245 654.521 300.738C655.67 298.267 656.697 295.737 657.599 293.157C659.917 286.488 661.21 279.482 661.429 272.397C661.864 258.271 657.939 244.159 648.801 233.922C648.567 233.66 648.336 233.405 648.096 233.147Z" fill="#F0F0F0"/>
<path d="M647.745 233.411C652.093 250.517 651.134 268.609 645.005 285.117C643.746 288.695 641.951 292.045 639.687 295.044C637.39 297.891 634.4 300.048 631.027 301.291C627.905 302.516 624.575 303.393 621.794 305.383C620.385 306.424 619.205 307.762 618.329 309.309C617.454 310.857 616.904 312.578 616.715 314.362C616.133 318.792 617.121 323.176 618.23 327.427C619.462 332.148 620.814 337.031 619.908 341.949C619.799 342.545 620.696 342.687 620.806 342.092C622.381 333.535 617.482 325.615 617.45 317.143C617.435 313.189 618.569 309.207 621.648 306.668C624.34 304.447 627.774 303.539 630.945 302.328C634.252 301.165 637.235 299.18 639.632 296.547C642.036 293.678 643.952 290.405 645.298 286.869C648.45 278.958 650.384 270.583 651.028 262.049C651.815 252.314 650.99 242.511 648.59 233.064C648.441 232.48 647.598 232.83 647.745 233.411Z" fill="white"/>
<path d="M647.28 279.922C650.09 280.613 653.045 280.245 655.618 278.884C658.19 277.524 660.213 275.259 661.324 272.494C661.547 271.934 660.719 271.548 660.495 272.109C659.465 274.686 657.581 276.795 655.183 278.057C652.784 279.319 650.03 279.65 647.418 278.991C646.85 278.848 646.715 279.78 647.28 279.922V279.922Z" fill="white"/>
<path d="M632.689 300.886C629.545 295.704 628.4 289.483 629.482 283.464C629.589 282.868 628.691 282.726 628.584 283.321C627.469 289.587 628.674 296.059 631.957 301.444C632.27 301.957 633.001 301.397 632.689 300.886Z" fill="white"/>
<path d="M650.673 252.713C649.533 252.68 648.417 252.355 647.428 251.765C646.438 251.175 645.605 250.339 645.004 249.333C644.697 248.816 643.967 249.377 644.272 249.891C644.941 250.999 645.862 251.921 646.954 252.575C648.046 253.229 649.276 253.596 650.536 253.644C650.654 253.659 650.774 253.626 650.87 253.553C650.966 253.48 651.032 253.371 651.054 253.25C651.071 253.126 651.041 253.001 650.97 252.9C650.899 252.799 650.792 252.732 650.673 252.713H650.673Z" fill="white"/>
<path d="M186.905 222.898C186.252 222.49 185.693 221.939 185.267 221.283C184.842 220.627 184.56 219.882 184.442 219.101C184.324 218.32 184.373 217.521 184.585 216.762C184.797 216.002 185.166 215.3 185.668 214.705L176.485 198.01L186.095 198.654L193.342 214.409C194.25 215.349 194.794 216.603 194.871 217.932C194.948 219.26 194.552 220.572 193.759 221.619C192.965 222.665 191.83 223.373 190.566 223.609C189.303 223.845 188 223.592 186.905 222.898Z" fill="#FFB6B6"/>
<path d="M116.215 336.705H122.572L125.597 311.27L116.214 311.271L116.215 336.705Z" fill="#FFB6B6"/>
<path d="M114.593 334.552L127.113 334.552H127.114C129.23 334.552 131.259 335.424 132.755 336.976C134.252 338.528 135.092 340.633 135.093 342.827V343.096L114.594 343.097L114.593 334.552Z" fill="#2F2E41"/>
<path d="M159.774 336.705H166.131L169.155 311.27L159.772 311.271L159.774 336.705Z" fill="#FFB6B6"/>
<path d="M158.152 334.552L170.672 334.552H170.672C172.788 334.552 174.818 335.424 176.314 336.976C177.81 338.528 178.651 340.633 178.651 342.827V343.096L158.152 343.097L158.152 334.552Z" fill="#2F2E41"/>
<path d="M176.121 198.728C176.121 198.728 177.87 224.556 174.426 237.564C170.982 250.572 170.367 329.237 170.367 329.237H158.823L148.817 222.158L125.751 329.615L114.755 328.831L120.785 202.207L176.121 198.728Z" fill="#2F2E41"/>
<path d="M125.556 111.661L134.381 104.981L149.169 108.321L153.172 118.186L160.069 121.734C162.337 122.9 164.298 124.62 165.784 126.746C167.269 128.872 168.235 131.34 168.598 133.939L178.452 204.519L120.785 202.207L113.804 119.085C113.731 118.217 113.827 117.342 114.086 116.513C114.344 115.684 114.761 114.917 115.311 114.257C115.86 113.598 116.532 113.06 117.285 112.674C118.039 112.289 118.86 112.064 119.699 112.014L125.556 111.661Z" fill="#3F3D56"/>
<path d="M163.718 127.247L169.044 134.694L192.242 208.082L181.368 212.597L163.957 178.4L163.718 127.247Z" fill="#3F3D56"/>
<path d="M144.412 101.494C151.525 101.494 157.291 95.5127 157.291 88.1346C157.291 80.7564 151.525 74.7753 144.412 74.7753C137.298 74.7753 131.532 80.7564 131.532 88.1346C131.532 95.5127 137.298 101.494 144.412 101.494Z" fill="#FFB9B9"/>
<path opacity="0.1" d="M116.333 143.098L137.352 173.419L160.845 189.309L116.333 143.098Z" fill="black"/>
<path d="M137.586 97.7923C136.69 95.937 135.768 93.9175 136.111 91.8731C136.453 89.8288 138.715 88.0474 140.461 89.061C141.185 86.346 144.391 85.1579 147.09 85.4713C149.789 85.7847 152.274 87.135 154.932 87.7147C157.59 88.2944 160.817 87.8345 162.254 85.4439L158.817 85.3822L162.396 81.0765L158.247 80.7546C159.684 79.146 159.302 76.413 157.911 74.7616C156.52 73.1102 154.409 72.3288 152.349 71.8347C148.237 70.8516 143.974 70.7499 139.823 71.5361C137.866 71.8491 135.98 72.5298 134.258 73.5448C132.636 74.5706 131.297 76.0117 130.367 77.7297C129.365 79.6678 128.823 81.8264 128.787 84.0256C128.725 86.9715 129.378 89.8861 130.685 92.5025C131.991 95.1189 133.91 97.3533 136.265 99.0009" fill="#2F2E41"/>
<path d="M617.141 343.44H217.436C213.319 343.435 209.373 341.737 206.462 338.718C203.552 335.699 201.915 331.606 201.91 327.337V16.1034C201.915 11.834 203.552 7.74077 206.462 4.72184C209.373 1.70292 213.319 0.00479317 217.436 0H617.141C621.257 0.00486896 625.204 1.70303 628.114 4.72195C631.025 7.74087 632.662 11.834 632.667 16.1034V327.337C632.662 331.606 631.025 335.699 628.114 338.718C625.204 341.737 621.257 343.435 617.141 343.44Z" fill="#E4E4E4"/>
<path d="M516.543 142.901H454.842C451.793 142.901 448.869 141.645 446.712 139.408C444.556 137.172 443.345 134.139 443.345 130.976C443.345 127.813 444.556 124.78 446.712 122.544C448.869 120.308 451.793 119.051 454.842 119.051H516.543C519.592 119.051 522.517 120.308 524.673 122.544C526.829 124.78 528.04 127.813 528.04 130.976C528.04 134.139 526.829 137.172 524.673 139.408C522.517 141.645 519.592 142.901 516.543 142.901Z" fill="white"/>
<path d="M462.507 175.496H447.944C446.826 175.496 445.754 175.035 444.963 174.215C444.173 173.395 443.729 172.283 443.729 171.124C443.729 169.964 444.173 168.852 444.963 168.032C445.754 167.212 446.826 166.751 447.944 166.751H462.507C463.625 166.751 464.697 167.212 465.488 168.032C466.278 168.852 466.723 169.964 466.723 171.124C466.723 172.283 466.278 173.395 465.488 174.215C464.697 175.035 463.625 175.496 462.507 175.496Z" fill="white"/>
<path d="M523.058 175.496H508.495C507.377 175.496 506.305 175.035 505.514 174.215C504.724 173.395 504.28 172.283 504.28 171.124C504.28 169.964 504.724 168.852 505.514 168.032C506.305 167.212 507.377 166.751 508.495 166.751H523.058C524.176 166.751 525.248 167.212 526.039 168.032C526.83 168.852 527.274 169.964 527.274 171.124C527.274 172.283 526.83 173.395 526.039 174.215C525.248 175.035 524.176 175.496 523.058 175.496Z" fill="white"/>
<path d="M492.399 175.496H477.836C476.718 175.496 475.646 175.035 474.856 174.215C474.065 173.395 473.621 172.283 473.621 171.124C473.621 169.964 474.065 168.852 474.856 168.032C475.646 167.212 476.718 166.751 477.836 166.751H492.399C493.517 166.751 494.59 167.212 495.38 168.032C496.171 168.852 496.615 169.964 496.615 171.124C496.615 172.283 496.171 173.395 495.38 174.215C494.59 175.035 493.517 175.496 492.399 175.496Z" fill="white"/>
<path d="M462.507 192.191H447.944C446.826 192.191 445.754 191.731 444.963 190.911C444.173 190.091 443.729 188.978 443.729 187.819C443.729 186.659 444.173 185.547 444.963 184.727C445.754 183.907 446.826 183.446 447.944 183.446H462.507C463.625 183.446 464.697 183.907 465.488 184.727C466.278 185.547 466.723 186.659 466.723 187.819C466.723 188.978 466.278 190.091 465.488 190.911C464.697 191.731 463.625 192.191 462.507 192.191Z" fill="white"/>
<path d="M523.058 192.191H508.495C507.377 192.191 506.305 191.731 505.514 190.911C504.724 190.091 504.28 188.978 504.28 187.819C504.28 186.659 504.724 185.547 505.514 184.727C506.305 183.907 507.377 183.446 508.495 183.446H523.058C524.176 183.446 525.248 183.907 526.039 184.727C526.83 185.547 527.274 186.659 527.274 187.819C527.274 188.978 526.83 190.091 526.039 190.911C525.248 191.731 524.176 192.191 523.058 192.191Z" fill="white"/>
<path d="M492.399 192.191H477.836C476.718 192.191 475.646 191.731 474.856 190.911C474.065 190.091 473.621 188.978 473.621 187.819C473.621 186.659 474.065 185.547 474.856 184.727C475.646 183.907 476.718 183.446 477.836 183.446H492.399C493.517 183.446 494.59 183.907 495.38 184.727C496.171 185.547 496.615 186.659 496.615 187.819C496.615 188.978 496.171 190.091 495.38 190.911C494.59 191.731 493.517 192.191 492.399 192.191Z" fill="white"/>
<path d="M462.507 208.886H447.944C446.826 208.886 445.754 208.425 444.963 207.605C444.173 206.785 443.729 205.673 443.729 204.514C443.729 203.354 444.173 202.242 444.963 201.422C445.754 200.602 446.826 200.141 447.944 200.141H462.507C463.625 200.141 464.697 200.602 465.488 201.422C466.278 202.242 466.723 203.354 466.723 204.514C466.723 205.673 466.278 206.785 465.488 207.605C464.697 208.425 463.625 208.886 462.507 208.886Z" fill="white"/>
<path d="M523.058 208.886H508.495C507.377 208.886 506.305 208.425 505.514 207.605C504.724 206.785 504.28 205.673 504.28 204.514C504.28 203.354 504.724 202.242 505.514 201.422C506.305 200.602 507.377 200.141 508.495 200.141H523.058C524.176 200.141 525.248 200.602 526.039 201.422C526.83 202.242 527.274 203.354 527.274 204.514C527.274 205.673 526.83 206.785 526.039 207.605C525.248 208.425 524.176 208.886 523.058 208.886Z" fill="white"/>
<path d="M492.399 208.886H477.836C476.718 208.886 475.646 208.425 474.856 207.605C474.065 206.785 473.621 205.673 473.621 204.514C473.621 203.354 474.065 202.242 474.856 201.422C475.646 200.602 476.718 200.141 477.836 200.141H492.399C493.517 200.141 494.59 200.602 495.38 201.422C496.171 202.242 496.615 203.354 496.615 204.514C496.615 205.673 496.171 206.785 495.38 207.605C494.59 208.425 493.517 208.886 492.399 208.886Z" fill="white"/>
<path d="M462.507 225.581H447.944C446.826 225.581 445.754 225.121 444.963 224.301C444.173 223.481 443.729 222.368 443.729 221.209C443.729 220.049 444.173 218.937 444.963 218.117C445.754 217.297 446.826 216.836 447.944 216.836H462.507C463.625 216.836 464.697 217.297 465.488 218.117C466.278 218.937 466.723 220.049 466.723 221.209C466.723 222.368 466.278 223.481 465.488 224.301C464.697 225.121 463.625 225.581 462.507 225.581Z" fill="white"/>
<path d="M523.058 225.581H508.495C507.377 225.581 506.305 225.121 505.514 224.301C504.724 223.481 504.28 222.368 504.28 221.209C504.28 220.049 504.724 218.937 505.514 218.117C506.305 217.297 507.377 216.836 508.495 216.836H523.058C524.176 216.836 525.248 217.297 526.039 218.117C526.83 218.937 527.274 220.049 527.274 221.209C527.274 222.368 526.83 223.481 526.039 224.301C525.248 225.121 524.176 225.581 523.058 225.581Z" fill="white"/>
<path d="M492.399 225.581H477.836C476.718 225.581 475.646 225.121 474.856 224.301C474.065 223.481 473.621 222.368 473.621 221.209C473.621 220.049 474.065 218.937 474.856 218.117C475.646 217.297 476.718 216.836 477.836 216.836H492.399C493.517 216.836 494.59 217.297 495.38 218.117C496.171 218.937 496.615 220.049 496.615 221.209C496.615 222.368 496.171 223.481 495.38 224.301C494.59 225.121 493.517 225.581 492.399 225.581Z" fill="white"/>
<path d="M364.016 208.091C385.604 208.091 403.106 189.939 403.106 167.546C403.106 145.154 385.604 127.001 364.016 127.001C342.427 127.001 324.926 145.154 324.926 167.546C324.926 189.939 342.427 208.091 364.016 208.091Z" fill="#CACACA"/>
<path d="M364.015 217.234C360.967 217.23 358.045 215.973 355.89 213.737C353.734 211.501 352.522 208.47 352.518 205.309V129.784C352.517 128.217 352.814 126.665 353.391 125.217C353.968 123.769 354.815 122.453 355.883 121.345C356.95 120.237 358.218 119.357 359.614 118.758C361.009 118.158 362.505 117.849 364.015 117.849C365.526 117.849 367.022 118.158 368.417 118.758C369.813 119.357 371.081 120.237 372.148 121.345C373.216 122.453 374.063 123.769 374.64 125.217C375.217 126.665 375.514 128.217 375.512 129.784V205.309C375.509 208.47 374.297 211.501 372.141 213.737C369.986 215.972 367.064 217.23 364.015 217.234Z" fill="white"/>
<path d="M466.137 137.781H455.407C455 137.781 454.61 137.613 454.323 137.315C454.035 137.017 453.874 136.612 453.874 136.191C453.874 135.769 454.035 135.364 454.323 135.066C454.61 134.768 455 134.601 455.407 134.601H466.137C466.544 134.601 466.934 134.768 467.221 135.066C467.509 135.364 467.67 135.769 467.67 136.191C467.67 136.612 467.509 137.017 467.221 137.315C466.934 137.613 466.544 137.781 466.137 137.781Z" fill="#E4E4E4"/>
<path d="M482.999 138.178H472.269C471.862 138.178 471.472 138.011 471.185 137.712C470.897 137.414 470.736 137.01 470.736 136.588C470.736 136.166 470.897 135.762 471.185 135.464C471.472 135.166 471.862 134.998 472.269 134.998H482.999C483.406 134.998 483.796 135.166 484.083 135.464C484.371 135.762 484.532 136.166 484.532 136.588C484.532 137.01 484.371 137.414 484.083 137.712C483.796 138.011 483.406 138.178 482.999 138.178Z" fill="#E4E4E4"/>
<path d="M499.862 138.576H489.131C488.725 138.576 488.335 138.408 488.047 138.11C487.76 137.812 487.598 137.407 487.598 136.986C487.598 136.564 487.76 136.16 488.047 135.861C488.335 135.563 488.725 135.396 489.131 135.396H499.862C500.268 135.396 500.658 135.563 500.946 135.861C501.233 136.16 501.395 136.564 501.395 136.986C501.395 137.407 501.233 137.812 500.946 138.11C500.658 138.408 500.268 138.576 499.862 138.576Z" fill="#E4E4E4"/>
<path d="M516.724 138.973H505.994C505.587 138.973 505.197 138.806 504.91 138.507C504.622 138.209 504.461 137.805 504.461 137.383C504.461 136.961 504.622 136.557 504.91 136.259C505.197 135.961 505.587 135.793 505.994 135.793H516.724C517.131 135.793 517.521 135.961 517.808 136.259C518.096 136.557 518.257 136.961 518.257 137.383C518.257 137.805 518.096 138.209 517.808 138.507C517.521 138.806 517.131 138.973 516.724 138.973Z" fill="#E4E4E4"/>
<path d="M252.877 294.348C252.876 296.317 253.253 298.266 253.984 300.082C254.716 301.899 255.788 303.546 257.139 304.929H250.807C248.939 304.929 247.089 304.548 245.364 303.806C243.638 303.065 242.07 301.978 240.749 300.608C239.428 299.238 238.38 297.611 237.665 295.821C236.95 294.031 236.582 292.113 236.582 290.175V50.9738C236.582 49.0362 236.95 47.1176 237.665 45.3275C238.38 43.5374 239.428 41.9109 240.749 40.5408C242.07 39.1708 243.638 38.084 245.364 37.3425C247.089 36.601 248.939 36.2194 250.807 36.2194H260.021C257.848 37.5302 256.045 39.4095 254.791 41.6695C253.537 43.9294 252.878 46.491 252.877 49.0984L252.877 294.348Z" fill="#CACACA"/>
<path d="M720.088 345H0.912854C0.671269 344.999 0.439823 344.899 0.269243 344.722C0.098664 344.544 0.00286865 344.304 0.00286865 344.053C0.00286865 343.803 0.098664 343.562 0.269243 343.385C0.439823 343.208 0.671269 343.108 0.912854 343.107H720.088C720.33 343.107 720.562 343.207 720.733 343.384C720.904 343.562 721 343.802 721 344.053C721 344.304 720.904 344.545 720.733 344.723C720.562 344.9 720.33 345 720.088 345Z" fill="#CACACA"/>
<path d="M251.344 106.116C246.5 104.709 241.638 103.405 236.759 102.204C220.071 98.0726 203.154 95.014 186.103 93.0459C183.212 92.2565 180.139 92.6832 177.55 94.2332C174.962 95.7832 173.069 98.331 172.283 101.322L163.768 133.917C162.986 136.921 163.385 140.125 164.878 142.824C166.371 145.523 168.836 147.498 171.731 148.314L171.846 148.338C183.113 149.666 194.488 151.51 205.801 153.863C206.813 154.07 207.817 154.285 208.828 154.507C212.454 155.286 216.069 156.119 219.674 157.004C221.253 157.385 222.824 157.783 224.403 158.188C228.649 159.285 232.898 160.454 237.15 161.694C241.879 163.077 246.61 164.554 251.344 166.122C251.858 166.281 252.372 166.448 252.877 166.623V106.569C252.372 106.41 251.858 106.259 251.344 106.116Z" fill="white"/>
<path d="M251.344 106.116C246.5 104.709 241.638 103.405 236.759 102.204C220.071 98.0726 203.154 95.014 186.103 93.0459C183.212 92.2565 180.139 92.6832 177.55 94.2332C174.962 95.7832 173.069 98.331 172.283 101.322L163.768 133.917C162.986 136.921 163.385 140.125 164.878 142.824C166.371 145.523 168.836 147.498 171.731 148.314L171.846 148.338C183.113 149.666 194.488 151.51 205.801 153.863C206.813 154.07 207.817 154.285 208.828 154.507C212.454 155.286 216.069 156.119 219.674 157.004C221.253 157.385 222.824 157.783 224.403 158.188C228.649 159.285 232.898 160.454 237.15 161.694C241.879 163.077 246.61 164.554 251.344 166.122C251.858 166.281 252.372 166.448 252.877 166.623V164.946C252.364 164.779 251.85 164.612 251.344 164.445C246.991 163.006 242.643 161.652 238.299 160.382C236.674 159.897 235.049 159.428 233.424 158.975C230.497 158.156 227.576 157.372 224.664 156.622C223.116 156.217 221.57 155.827 220.026 155.453C219.912 155.422 219.789 155.398 219.674 155.366C217.045 154.722 214.411 154.107 211.771 153.522C210.76 153.299 209.748 153.076 208.736 152.862C196.534 150.238 184.24 148.195 172.076 146.764C169.588 146.045 167.474 144.336 166.195 142.009C164.916 139.682 164.575 136.925 165.247 134.338L173.762 101.735C174.443 99.1411 176.089 96.9333 178.338 95.5963C180.587 94.2593 183.255 93.9025 185.757 94.6041L185.872 94.6199C202.707 96.5588 219.412 99.5642 235.892 103.619C236.061 103.667 236.23 103.707 236.398 103.747C241.396 104.987 246.378 106.328 251.344 107.769C251.85 107.912 252.364 108.063 252.877 108.222V106.569C252.372 106.41 251.858 106.259 251.344 106.116Z" fill="#FF5A00"/>
<path d="M252.877 107.396V165.78C252.364 165.606 251.858 165.439 251.344 165.272C246.815 163.769 242.27 162.354 237.709 161.026C233.332 159.739 228.94 158.527 224.534 157.393C222.97 156.996 221.414 156.606 219.85 156.225C219.789 155.938 219.727 155.652 219.674 155.366C219.39 153.999 219.168 152.615 218.999 151.224C218.923 150.691 218.869 150.159 218.815 149.618C218.009 141.101 219.133 132.506 222.098 124.52C225.063 116.533 229.787 109.376 235.892 103.619C236.115 103.397 236.345 103.182 236.575 102.975C241.526 104.2 246.449 105.525 251.344 106.95C251.858 107.086 252.372 107.237 252.877 107.396Z" fill="#FF5A00"/>
<path d="M201.976 131.301L180.661 128.694C179.911 128.602 179.151 128.664 178.424 128.877C177.697 129.09 177.018 129.449 176.425 129.934C175.832 130.419 175.337 131.02 174.969 131.704C174.6 132.387 174.365 133.139 174.276 133.917C174.187 134.695 174.247 135.483 174.453 136.237C174.658 136.991 175.004 137.695 175.472 138.31C175.939 138.925 176.519 139.438 177.178 139.821C177.837 140.203 178.562 140.447 179.312 140.539L200.627 143.147C202.139 143.328 203.66 142.88 204.854 141.901C206.048 140.921 206.819 139.49 206.998 137.922C207.177 136.354 206.748 134.776 205.807 133.535C204.865 132.294 203.488 131.49 201.976 131.301ZM205.487 137.741C205.353 138.891 204.785 139.94 203.907 140.657C203.029 141.374 201.913 141.7 200.803 141.565L179.488 138.957C178.381 138.817 177.372 138.228 176.683 137.319C175.994 136.41 175.681 135.254 175.812 134.106C175.943 132.957 176.507 131.909 177.381 131.191C178.256 130.473 179.369 130.144 180.476 130.276L201.792 132.883C202.902 133.023 203.913 133.612 204.605 134.522C205.297 135.432 205.614 136.589 205.487 137.741L205.487 137.741Z" fill="#FF5A00"/>
<path d="M252.877 121.07V148.76C252.385 149.066 251.873 149.337 251.344 149.57C248.593 150.844 245.543 151.257 242.569 150.757C239.595 150.257 236.827 148.866 234.605 146.756C234.39 146.557 234.175 146.343 233.968 146.12C233.761 145.905 233.562 145.675 233.371 145.444C231.057 142.688 229.72 139.195 229.58 135.543C229.44 131.891 230.507 128.299 232.603 125.361C234.699 122.423 237.699 120.315 241.107 119.386C244.515 118.456 248.126 118.762 251.344 120.251C251.869 120.495 252.381 120.768 252.877 121.07Z" fill="white"/>
<path d="M251.344 141.112C245.312 142.415 239.321 143.86 233.371 145.444C231.148 146.033 228.933 146.642 226.726 147.273C224.089 148.028 221.452 148.81 218.815 149.618C215.451 150.652 212.091 151.733 208.736 152.862C207.763 153.196 206.782 153.53 205.801 153.863C196.473 157.091 187.206 160.669 178.093 164.572C175.193 165.324 172.696 167.234 171.147 169.886C169.598 172.538 169.122 175.717 169.823 178.731L177.511 211.549C178.222 214.571 180.06 217.178 182.622 218.796C185.184 220.415 188.261 220.913 191.176 220.182L191.284 220.143C206.271 213.767 221.609 208.319 237.218 203.829C241.879 202.486 246.587 201.219 251.344 200.029C251.858 199.902 252.364 199.775 252.877 199.656V140.786C252.364 140.881 251.858 140.992 251.344 141.112Z" fill="white"/>
<path d="M251.344 141.112C245.312 142.415 239.321 143.86 233.371 145.444C231.148 146.033 228.933 146.642 226.726 147.273C224.089 148.028 221.452 148.81 218.815 149.618C215.451 150.652 212.091 151.733 208.736 152.862C207.763 153.196 206.782 153.53 205.801 153.863C196.473 157.091 187.206 160.669 178.093 164.572C175.193 165.324 172.696 167.234 171.147 169.886C169.598 172.538 169.122 175.717 169.823 178.731L177.511 211.549C178.222 214.571 180.06 217.178 182.622 218.796C185.184 220.415 188.261 220.913 191.176 220.182L191.284 220.143C206.271 213.767 221.609 208.319 237.218 203.829C241.879 202.486 246.587 201.219 251.344 200.029C251.858 199.902 252.364 199.775 252.877 199.656V198.018C252.364 198.145 251.858 198.272 251.344 198.399C250.961 198.495 250.57 198.59 250.187 198.686C245.68 199.822 241.222 201.026 236.812 202.295C236.697 202.327 236.575 202.366 236.459 202.398C220.929 206.878 205.667 212.307 190.755 218.656C188.24 219.267 185.594 218.825 183.393 217.424C181.191 216.023 179.612 213.777 178.997 211.175L171.317 178.357C170.708 175.744 171.122 172.987 172.47 170.69C173.818 168.394 175.989 166.745 178.507 166.107L178.622 166.067C188.548 161.806 198.649 157.942 208.828 154.507C209.809 154.174 210.791 153.848 211.771 153.522C214.178 152.735 216.588 151.969 218.999 151.224C221.544 150.437 224.086 149.679 226.626 148.95C226.794 148.903 226.963 148.855 227.132 148.807C229.615 148.1 232.106 147.416 234.605 146.756C240.146 145.293 245.726 143.95 251.344 142.726C251.85 142.614 252.364 142.503 252.877 142.4V140.786C252.364 140.881 251.858 140.992 251.344 141.112Z" fill="#FF5A00"/>
<path d="M252.877 141.589V198.837C252.372 198.956 251.858 199.075 251.344 199.202C246.546 200.411 241.769 201.699 237.012 203.066C236.82 202.843 236.636 202.621 236.459 202.398C231.493 196.368 227.844 189.294 225.763 181.663C223.682 174.031 223.218 166.023 224.403 158.188C224.441 157.926 224.487 157.656 224.534 157.393C224.572 157.139 224.618 156.876 224.664 156.622C225.137 154.019 225.793 151.455 226.626 148.95C226.726 148.648 226.825 148.346 226.932 148.044C229.27 147.376 231.615 146.735 233.968 146.12C239.725 144.578 245.517 143.176 251.344 141.915C251.85 141.795 252.364 141.692 252.877 141.589Z" fill="#FF5A00"/>
<path d="M217.26 193.447C216.685 191.982 215.574 190.814 214.17 190.199C212.766 189.583 211.184 189.571 209.771 190.163L189.881 198.527C188.471 199.123 187.346 200.275 186.754 201.731C186.162 203.187 186.151 204.826 186.724 206.29C187.296 207.754 188.406 208.923 189.808 209.539C191.211 210.155 192.792 210.169 194.204 209.577L214.094 201.214C215.505 200.616 216.629 199.464 217.223 198.008C217.816 196.552 217.829 194.912 217.26 193.447ZM213.519 199.735L193.629 208.106C192.593 208.541 191.433 208.531 190.403 208.079C189.374 207.627 188.559 206.77 188.139 205.695C187.719 204.621 187.726 203.417 188.161 202.349C188.595 201.281 189.421 200.435 190.456 199.997L210.346 191.634C211.382 191.197 212.542 191.206 213.572 191.657C214.602 192.108 215.417 192.965 215.838 194.039C216.259 195.113 216.251 196.317 215.816 197.385C215.381 198.453 214.555 199.299 213.519 199.735Z" fill="#FF5A00"/>
<path d="M252.877 156.209V187.381C252.372 187.514 251.86 187.62 251.344 187.699C248.267 188.146 245.131 187.623 242.345 186.197C239.558 184.772 237.249 182.51 235.718 179.705C234.187 176.9 233.505 173.683 233.76 170.471C234.016 167.259 235.197 164.201 237.15 161.694C237.326 161.464 237.51 161.241 237.709 161.026C237.893 160.804 238.092 160.589 238.299 160.382C239.994 158.644 242.053 157.335 244.316 156.557C246.579 155.779 248.984 155.554 251.344 155.899C251.861 155.97 252.373 156.074 252.877 156.209Z" fill="white"/>
<path d="M251.344 101.974V181.323C251.858 181.148 252.372 180.981 252.877 180.822V102.697C252.364 102.451 251.858 102.212 251.344 101.974ZM251.344 101.974V181.323C251.858 181.148 252.372 180.981 252.877 180.822V102.697C252.364 102.451 251.858 102.212 251.344 101.974ZM251.344 101.974V181.323C251.858 181.148 252.372 180.981 252.877 180.822V102.697C252.364 102.451 251.858 102.212 251.344 101.974ZM251.344 107.769V199.202C251.858 199.075 252.372 198.956 252.877 198.837V108.222C252.364 108.063 251.85 107.912 251.344 107.769V107.769ZM251.344 107.769V199.202C251.858 199.075 252.372 198.956 252.877 198.837V108.222C252.364 108.063 251.85 107.912 251.344 107.769V107.769ZM251.344 107.769V199.202C251.858 199.075 252.372 198.956 252.877 198.837V108.222C252.364 108.063 251.85 107.912 251.344 107.769V107.769ZM251.344 107.769V199.202C251.858 199.075 252.372 198.956 252.877 198.837V108.222C252.364 108.063 251.85 107.912 251.344 107.769V107.769ZM251.344 107.769V200.029C251.858 199.902 252.364 199.775 252.877 199.655V108.222C252.364 108.063 251.85 107.912 251.344 107.769V107.769ZM585.717 32.5941H267.256C263.038 32.6014 258.995 34.3425 256.013 37.4361C253.03 40.5297 251.351 44.7234 251.344 49.0983V294.348C251.351 298.722 253.03 302.915 256.013 306.007C258.996 309.099 263.039 310.839 267.256 310.844H585.717C589.934 310.839 593.976 309.099 596.957 306.007C599.939 302.914 601.616 298.721 601.621 294.348V49.0983C601.618 44.7236 599.941 40.5291 596.96 37.4349C593.978 34.3408 589.935 32.5999 585.717 32.5941V32.5941ZM600.088 294.348C600.084 298.3 598.569 302.089 595.875 304.884C593.18 307.678 589.527 309.25 585.717 309.254H267.256C263.445 309.251 259.791 307.679 257.095 304.885C254.4 302.09 252.883 298.301 252.877 294.348V49.0983C252.883 45.1446 254.4 41.3546 257.095 38.5589C259.79 35.7633 263.445 34.19 267.256 34.1841H585.717C589.529 34.1887 593.183 35.7617 595.877 38.5579C598.571 41.3541 600.086 45.145 600.088 49.0983V294.348ZM251.344 107.769V198.399C251.858 198.272 252.364 198.145 252.877 198.018V108.222C252.364 108.063 251.85 107.912 251.344 107.769V107.769ZM251.344 107.769V199.202C251.858 199.075 252.372 198.956 252.877 198.837V108.222C252.364 108.063 251.85 107.912 251.344 107.769V107.769ZM251.344 107.769V199.202C251.858 199.075 252.372 198.956 252.877 198.837V108.222C252.364 108.063 251.85 107.912 251.344 107.769V107.769ZM251.344 107.769V199.202C251.858 199.075 252.372 198.956 252.877 198.837V108.222C252.364 108.063 251.85 107.912 251.344 107.769V107.769ZM251.344 101.974V181.323C251.858 181.148 252.372 180.981 252.877 180.822V102.697C252.364 102.451 251.858 102.212 251.344 101.974ZM251.344 101.974V181.323C251.858 181.148 252.372 180.981 252.877 180.822V102.697C252.364 102.451 251.858 102.212 251.344 101.974Z" fill="#2F2E41"/>
<path d="M183.072 185.93C182.771 185.203 182.321 184.554 181.752 184.027C181.184 183.5 180.511 183.109 179.781 182.882C179.051 182.654 178.281 182.595 177.527 182.709C176.773 182.824 176.052 183.108 175.415 183.542L160.721 171.832L160.026 181.794L174.086 191.387C174.861 192.448 175.984 193.178 177.243 193.438C178.501 193.698 179.808 193.471 180.916 192.798C182.024 192.125 182.855 191.055 183.252 189.789C183.649 188.523 183.585 187.15 183.072 185.93V185.93Z" fill="#FFB6B6"/>
<path d="M123.861 115.256L119.026 112.886C119.026 112.886 111.237 115.159 115.021 125.842L137.923 170.095L165.883 187.074L174.599 179.062L146.619 156.099L123.861 115.256Z" fill="#3F3D56"/>
</g>
<defs>
<clipPath id="clip0_12_376">
<rect width="721" height="345" fill="white"/>
</clipPath>
</defs>
</svg>
