<svg width="193" height="94" viewBox="0 0 193 94" fill="none" xmlns="http://www.w3.org/2000/svg">
<path d="M28.72 18.15V20.94H23.17V39H19.75V20.94H14.17V18.15H28.72ZM40.7336 22.2C41.9936 22.2 43.1136 22.47 44.0936 23.01C45.0936 23.55 45.8736 24.35 46.4336 25.41C47.0136 26.47 47.3036 27.75 47.3036 29.25V39H43.9136V29.76C43.9136 28.28 43.5436 27.15 42.8036 26.37C42.0636 25.57 41.0536 25.17 39.7736 25.17C38.4936 25.17 37.4736 25.57 36.7136 26.37C35.9736 27.15 35.6036 28.28 35.6036 29.76V39H32.1836V16.8H35.6036V24.39C36.1836 23.69 36.9136 23.15 37.7936 22.77C38.6936 22.39 39.6736 22.2 40.7336 22.2ZM66.816 30.33C66.816 30.95 66.776 31.51 66.696 32.01H54.066C54.166 33.33 54.656 34.39 55.536 35.19C56.416 35.99 57.496 36.39 58.776 36.39C60.616 36.39 61.916 35.62 62.676 34.08H66.366C65.866 35.6 64.956 36.85 63.636 37.83C62.336 38.79 60.716 39.27 58.776 39.27C57.196 39.27 55.776 38.92 54.516 38.22C53.276 37.5 52.296 36.5 51.576 35.22C50.876 33.92 50.526 32.42 50.526 30.72C50.526 29.02 50.866 27.53 51.546 26.25C52.246 24.95 53.216 23.95 54.456 23.25C55.716 22.55 57.156 22.2 58.776 22.2C60.336 22.2 61.726 22.54 62.946 23.22C64.166 23.9 65.116 24.86 65.796 26.1C66.476 27.32 66.816 28.73 66.816 30.33ZM63.246 29.25C63.226 27.99 62.776 26.98 61.896 26.22C61.016 25.46 59.926 25.08 58.626 25.08C57.446 25.08 56.436 25.46 55.596 26.22C54.756 26.96 54.256 27.97 54.096 29.25H63.246Z" fill="black"/>
<path d="M44.88 59.72C46.3733 59.9867 47.64 60.7733 48.68 62.08C49.72 63.3867 50.24 64.8667 50.24 66.52C50.24 67.9333 49.8667 69.2133 49.12 70.36C48.4 71.48 47.3467 72.3733 45.96 73.04C44.5733 73.68 42.96 74 41.12 74H30V46.2H40.6C42.4933 46.2 44.12 46.52 45.48 47.16C46.84 47.8 47.8667 48.6667 48.56 49.76C49.2533 50.8267 49.6 52.0267 49.6 53.36C49.6 54.96 49.1733 56.2933 48.32 57.36C47.4667 58.4267 46.32 59.2133 44.88 59.72ZM34.56 57.88H40.2C41.6933 57.88 42.8533 57.5467 43.68 56.88C44.5333 56.1867 44.96 55.2 44.96 53.92C44.96 52.6667 44.5333 51.6933 43.68 51C42.8533 50.28 41.6933 49.92 40.2 49.92H34.56V57.88ZM40.72 70.28C42.2667 70.28 43.48 69.9067 44.36 69.16C45.24 68.4133 45.68 67.3733 45.68 66.04C45.68 64.68 45.2133 63.6 44.28 62.8C43.3467 62 42.1067 61.6 40.56 61.6H34.56V70.28H40.72ZM53.6753 62.88C53.6753 60.6667 54.1286 58.7067 55.0353 57C55.9686 55.2933 57.222 53.9733 58.7953 53.04C60.3953 52.08 62.1553 51.6 64.0753 51.6C65.8086 51.6 67.3153 51.9467 68.5953 52.64C69.902 53.3067 70.942 54.1467 71.7153 55.16V51.96H76.3153V74H71.7153V70.72C70.942 71.76 69.8886 72.6267 68.5553 73.32C67.222 74.0133 65.702 74.36 63.9953 74.36C62.102 74.36 60.3686 73.88 58.7953 72.92C57.222 71.9333 55.9686 70.5733 55.0353 68.84C54.1286 67.08 53.6753 65.0933 53.6753 62.88ZM71.7153 62.96C71.7153 61.44 71.3953 60.12 70.7553 59C70.142 57.88 69.3286 57.0267 68.3153 56.44C67.302 55.8533 66.2086 55.56 65.0353 55.56C63.862 55.56 62.7686 55.8533 61.7553 56.44C60.742 57 59.9153 57.84 59.2753 58.96C58.662 60.0533 58.3553 61.36 58.3553 62.88C58.3553 64.4 58.662 65.7333 59.2753 66.88C59.9153 68.0267 60.742 68.9067 61.7553 69.52C62.7953 70.1067 63.8886 70.4 65.0353 70.4C66.2086 70.4 67.302 70.1067 68.3153 69.52C69.3286 68.9333 70.142 68.08 70.7553 66.96C71.3953 65.8133 71.7153 64.48 71.7153 62.96ZM93.4247 51.6C95.158 51.6 96.7047 51.96 98.0647 52.68C99.4514 53.4 100.531 54.4667 101.305 55.88C102.078 57.2933 102.465 59 102.465 61V74H97.9447V61.68C97.9447 59.7067 97.4514 58.2 96.4647 57.16C95.478 56.0933 94.1314 55.56 92.4247 55.56C90.718 55.56 89.358 56.0933 88.3447 57.16C87.358 58.2 86.8647 59.7067 86.8647 61.68V74H82.3047V51.96H86.8647V54.48C87.6114 53.5733 88.558 52.8667 89.7047 52.36C90.878 51.8533 92.118 51.6 93.4247 51.6ZM117.001 63L127.161 74H121.001L112.841 64.52V74H108.281V44.4H112.841V61.6L120.841 51.96H127.161L117.001 63Z" fill="black"/>
<path d="M90 82H134.198V35" stroke="black" stroke-width="2"/>
<path d="M100.183 87H140.183V47" stroke="black" stroke-width="2"/>
</svg>
